<mxfile host="app.diagrams.net" modified="2024-04-18T13:30:27.442Z" agent="Mozilla/5.0 (Windows NT 10.0; Win64; x64; rv:125.0) Gecko/20100101 Firefox/125.0" etag="RCdVsI5d_3KXOqTG_CtA" version="24.2.5" type="device">
  <diagram id="R2lEEEUBdFMjLlhIrx00" name="Page-1">
    <mxGraphModel dx="1195" dy="622" grid="1" gridSize="10" guides="1" tooltips="1" connect="1" arrows="1" fold="1" page="1" pageScale="1" pageWidth="850" pageHeight="1100" math="0" shadow="0" extFonts="Permanent Marker^https://fonts.googleapis.com/css?family=Permanent+Marker">
      <root>
        <mxCell id="0" />
        <mxCell id="1" parent="0" />
        <mxCell id="C-vyLk0tnHw3VtMMgP7b-12" value="" style="edgeStyle=entityRelationEdgeStyle;endArrow=ERzeroToMany;startArrow=ERone;endFill=1;startFill=0;" parent="1" target="C-vyLk0tnHw3VtMMgP7b-17" edge="1">
          <mxGeometry width="100" height="100" relative="1" as="geometry">
            <mxPoint x="700" y="165" as="sourcePoint" />
            <mxPoint x="460" y="205" as="targetPoint" />
          </mxGeometry>
        </mxCell>
        <mxCell id="UykqgiaP44-gQdHWJnm8-1" value="&lt;font face=&quot;Tahoma&quot; style=&quot;font-size: 26px;&quot;&gt;USERS&lt;/font&gt;" style="swimlane;childLayout=stackLayout;horizontal=1;startSize=50;horizontalStack=0;rounded=1;fontSize=14;fontStyle=0;strokeWidth=2;resizeParent=0;resizeLast=1;shadow=0;dashed=0;align=center;arcSize=4;whiteSpace=wrap;html=1;" vertex="1" parent="1">
          <mxGeometry x="70" y="160" width="160" height="180" as="geometry" />
        </mxCell>
        <mxCell id="UykqgiaP44-gQdHWJnm8-2" value="&lt;div style=&quot;font-size: 11px;&quot;&gt;&lt;font face=&quot;Tahoma&quot; style=&quot;font-size: 11px;&quot;&gt;+ &lt;b&gt;Name&lt;/b&gt; (string) - &lt;u&gt;unique&lt;/u&gt;;&lt;/font&gt;&lt;/div&gt;&lt;font face=&quot;Tahoma&quot; style=&quot;font-size: 11px;&quot;&gt;+ &lt;b&gt;Email&lt;/b&gt; (string) - &lt;u&gt;unique&lt;/u&gt;&lt;/font&gt;&lt;font face=&quot;BpLTm09htgfc6ICP91tT&quot; style=&quot;font-size: 11px;&quot;&gt;;&lt;br&gt;&lt;/font&gt;&lt;div&gt;&lt;font face=&quot;Tahoma&quot; style=&quot;font-size: 11px;&quot;&gt;+ &lt;b&gt;Password&lt;/b&gt; (string);&lt;/font&gt;&lt;/div&gt;&lt;div&gt;&lt;font face=&quot;Tahoma&quot; style=&quot;font-size: 11px;&quot;&gt;+ &lt;/font&gt;&lt;font face=&quot;Tahoma&quot; style=&quot;font-size: 11px;&quot;&gt;&lt;b&gt;Birthdate &lt;/b&gt;(date)&lt;/font&gt;&lt;font face=&quot;z6NiohqkfmXLJAYdwtGH&quot; style=&quot;font-size: 11px;&quot;&gt;;&lt;br&gt;&lt;/font&gt;&lt;/div&gt;&lt;div&gt;&lt;font face=&quot;Tahoma&quot; style=&quot;font-size: 11px;&quot;&gt;+ &lt;b&gt;Register date&lt;/b&gt; (date);&lt;/font&gt;&lt;/div&gt;&lt;div&gt;&lt;font face=&quot;Tahoma&quot; style=&quot;font-size: 11px;&quot;&gt;+ &lt;b&gt;Role&lt;/b&gt; (role);&lt;/font&gt;&lt;font face=&quot;ASBNrK79ZyfINB1bzyR0&quot; style=&quot;font-size: 11px;&quot;&gt;&lt;br&gt;&lt;/font&gt;&lt;/div&gt;&lt;div&gt;&lt;font face=&quot;Tahoma&quot;&gt;+ &lt;b&gt;Payments&lt;/b&gt; (payment);&lt;/font&gt;&lt;/div&gt;&lt;div&gt;&lt;font face=&quot;Tahoma&quot;&gt;+ &lt;b&gt;Sick notes&lt;/b&gt; (sicknote);&lt;br&gt;&lt;/font&gt;&lt;/div&gt;" style="align=left;strokeColor=none;fillColor=none;spacingLeft=4;fontSize=12;verticalAlign=top;resizable=0;rotatable=0;part=1;html=1;" vertex="1" parent="UykqgiaP44-gQdHWJnm8-1">
          <mxGeometry y="50" width="160" height="130" as="geometry" />
        </mxCell>
        <mxCell id="UykqgiaP44-gQdHWJnm8-6" style="edgeStyle=orthogonalEdgeStyle;rounded=0;orthogonalLoop=1;jettySize=auto;html=1;exitX=0.5;exitY=1;exitDx=0;exitDy=0;" edge="1" parent="UykqgiaP44-gQdHWJnm8-1" source="UykqgiaP44-gQdHWJnm8-2" target="UykqgiaP44-gQdHWJnm8-2">
          <mxGeometry relative="1" as="geometry" />
        </mxCell>
        <mxCell id="UykqgiaP44-gQdHWJnm8-7" value="&lt;font style=&quot;font-size: 26px;&quot;&gt;ROLES&lt;/font&gt;" style="swimlane;childLayout=stackLayout;horizontal=1;startSize=50;horizontalStack=0;rounded=1;fontSize=14;fontStyle=0;strokeWidth=2;resizeParent=0;resizeLast=1;shadow=0;dashed=0;align=center;arcSize=4;whiteSpace=wrap;html=1;" vertex="1" parent="1">
          <mxGeometry x="350" y="160" width="250" height="120" as="geometry" />
        </mxCell>
        <mxCell id="UykqgiaP44-gQdHWJnm8-8" value="&lt;div&gt;&lt;font face=&quot;Tahoma&quot;&gt;+ &lt;b&gt;Name&lt;/b&gt; (string) - &lt;u&gt;unique&lt;/u&gt;;&lt;/font&gt;&lt;/div&gt;&lt;div&gt;&lt;font face=&quot;Tahoma&quot;&gt;+ &lt;b&gt;Permissions group&lt;/b&gt; (permission_group);&lt;/font&gt;&lt;/div&gt;&lt;div&gt;&lt;font face=&quot;Tahoma&quot;&gt;+ &lt;b&gt;Max num. of people&lt;/b&gt; (number);&lt;/font&gt;&lt;/div&gt;&lt;div&gt;&lt;font face=&quot;Tahoma&quot;&gt;+ &lt;b&gt;Sallary&lt;/b&gt; (number);&lt;br&gt;&lt;/font&gt;&lt;/div&gt;&lt;div&gt;&lt;font face=&quot;LLcvEg-dxcwXxTxjE2nI&quot;&gt;&lt;br&gt;&lt;/font&gt;&lt;/div&gt;" style="align=left;strokeColor=none;fillColor=none;spacingLeft=4;fontSize=12;verticalAlign=top;resizable=0;rotatable=0;part=1;html=1;" vertex="1" parent="UykqgiaP44-gQdHWJnm8-7">
          <mxGeometry y="50" width="250" height="70" as="geometry" />
        </mxCell>
        <mxCell id="UykqgiaP44-gQdHWJnm8-9" value="&lt;font style=&quot;font-size: 26px;&quot;&gt;PERMISSIONS_GROUP&lt;/font&gt;" style="swimlane;childLayout=stackLayout;horizontal=1;startSize=50;horizontalStack=0;rounded=1;fontSize=14;fontStyle=0;strokeWidth=2;resizeParent=0;resizeLast=1;shadow=0;dashed=0;align=center;arcSize=4;whiteSpace=wrap;html=1;" vertex="1" parent="1">
          <mxGeometry x="530" y="360" width="300" height="90" as="geometry" />
        </mxCell>
        <mxCell id="UykqgiaP44-gQdHWJnm8-10" value="&lt;div&gt;&lt;font face=&quot;Tahoma&quot;&gt;+ &lt;b&gt;Name&lt;/b&gt; (string);&lt;br&gt;&lt;/font&gt;&lt;/div&gt;&lt;div&gt;&lt;font face=&quot;Tahoma&quot;&gt;+ &lt;b&gt;Permissions &lt;/b&gt;(permission);&lt;br&gt;&lt;/font&gt;&lt;/div&gt;" style="align=left;strokeColor=none;fillColor=none;spacingLeft=4;fontSize=12;verticalAlign=top;resizable=0;rotatable=0;part=1;html=1;" vertex="1" parent="UykqgiaP44-gQdHWJnm8-9">
          <mxGeometry y="50" width="300" height="40" as="geometry" />
        </mxCell>
        <mxCell id="UykqgiaP44-gQdHWJnm8-11" value="&lt;font style=&quot;font-size: 26px;&quot; face=&quot;Tahoma&quot;&gt;APPLICATION&lt;/font&gt;" style="swimlane;childLayout=stackLayout;horizontal=1;startSize=50;horizontalStack=0;rounded=1;fontSize=14;fontStyle=0;strokeWidth=2;resizeParent=0;resizeLast=1;shadow=0;dashed=0;align=center;arcSize=4;whiteSpace=wrap;html=1;" vertex="1" parent="1">
          <mxGeometry x="285" y="10" width="180" height="90" as="geometry" />
        </mxCell>
        <mxCell id="UykqgiaP44-gQdHWJnm8-12" value="&lt;div&gt;&lt;font face=&quot;Tahoma&quot;&gt;+ &lt;b&gt;Company name&lt;/b&gt; (string);&lt;/font&gt;&lt;/div&gt;&lt;div&gt;&lt;font face=&quot;Tahoma&quot;&gt;+ &lt;b&gt;Admin user&lt;/b&gt; (user) - &lt;u&gt;unique&lt;/u&gt;;&lt;/font&gt;&lt;/div&gt;&lt;div&gt;&lt;font face=&quot;Tahoma&quot;&gt;&lt;br&gt;&lt;/font&gt;&lt;/div&gt;" style="align=left;strokeColor=none;fillColor=none;spacingLeft=4;fontSize=12;verticalAlign=top;resizable=0;rotatable=0;part=1;html=1;" vertex="1" parent="UykqgiaP44-gQdHWJnm8-11">
          <mxGeometry y="50" width="180" height="40" as="geometry" />
        </mxCell>
        <mxCell id="UykqgiaP44-gQdHWJnm8-16" value="" style="edgeStyle=entityRelationEdgeStyle;fontSize=12;html=1;endArrow=ERmandOne;startArrow=ERmandOne;rounded=0;entryX=1.013;entryY=0.184;entryDx=0;entryDy=0;entryPerimeter=0;exitX=-0.021;exitY=0.314;exitDx=0;exitDy=0;exitPerimeter=0;" edge="1" parent="1" source="UykqgiaP44-gQdHWJnm8-12" target="UykqgiaP44-gQdHWJnm8-1">
          <mxGeometry width="100" height="100" relative="1" as="geometry">
            <mxPoint x="-30" y="290" as="sourcePoint" />
            <mxPoint x="70" y="190" as="targetPoint" />
            <Array as="points">
              <mxPoint x="60" y="240" />
              <mxPoint x="90" y="420" />
              <mxPoint x="-50" y="300" />
            </Array>
          </mxGeometry>
        </mxCell>
        <mxCell id="UykqgiaP44-gQdHWJnm8-17" value="" style="edgeStyle=entityRelationEdgeStyle;fontSize=12;html=1;endArrow=ERmandOne;startArrow=ERmandOne;rounded=0;exitX=1.017;exitY=0.669;exitDx=0;exitDy=0;exitPerimeter=0;entryX=-0.011;entryY=0.182;entryDx=0;entryDy=0;entryPerimeter=0;" edge="1" parent="1" source="UykqgiaP44-gQdHWJnm8-2" target="UykqgiaP44-gQdHWJnm8-7">
          <mxGeometry width="100" height="100" relative="1" as="geometry">
            <mxPoint x="380" y="410" as="sourcePoint" />
            <mxPoint x="480" y="310" as="targetPoint" />
          </mxGeometry>
        </mxCell>
        <mxCell id="UykqgiaP44-gQdHWJnm8-18" value="" style="edgeStyle=entityRelationEdgeStyle;fontSize=12;html=1;endArrow=ERoneToMany;startArrow=ERmandOne;rounded=0;entryX=0.996;entryY=0.367;entryDx=0;entryDy=0;entryPerimeter=0;exitX=0.533;exitY=-0.111;exitDx=0;exitDy=0;exitPerimeter=0;" edge="1" parent="1" source="UykqgiaP44-gQdHWJnm8-9" target="UykqgiaP44-gQdHWJnm8-8">
          <mxGeometry width="100" height="100" relative="1" as="geometry">
            <mxPoint x="780" y="500" as="sourcePoint" />
            <mxPoint x="480" y="310" as="targetPoint" />
            <Array as="points">
              <mxPoint x="720" y="370" />
            </Array>
          </mxGeometry>
        </mxCell>
        <mxCell id="UykqgiaP44-gQdHWJnm8-19" value="&lt;font style=&quot;font-size: 26px;&quot; face=&quot;Tahoma&quot;&gt;PAYMENTS&lt;/font&gt;" style="swimlane;childLayout=stackLayout;horizontal=1;startSize=50;horizontalStack=0;rounded=1;fontSize=14;fontStyle=0;strokeWidth=2;resizeParent=0;resizeLast=1;shadow=0;dashed=0;align=center;arcSize=4;whiteSpace=wrap;html=1;" vertex="1" parent="1">
          <mxGeometry x="10" y="425" width="160" height="105" as="geometry" />
        </mxCell>
        <mxCell id="UykqgiaP44-gQdHWJnm8-20" value="&lt;div&gt;&lt;font face=&quot;Tahoma&quot;&gt;+ &lt;b&gt;User &lt;/b&gt;(user);&lt;/font&gt;&lt;/div&gt;&lt;div&gt;&lt;font face=&quot;Tahoma&quot;&gt;+ &lt;b&gt;Amount&lt;/b&gt; (number);&lt;/font&gt;&lt;/div&gt;&lt;div&gt;&lt;font face=&quot;Tahoma&quot;&gt;+ &lt;b&gt;Date&lt;/b&gt; (date);&lt;br&gt;&lt;/font&gt;&lt;/div&gt;" style="align=left;strokeColor=none;fillColor=none;spacingLeft=4;fontSize=12;verticalAlign=top;resizable=0;rotatable=0;part=1;html=1;" vertex="1" parent="UykqgiaP44-gQdHWJnm8-19">
          <mxGeometry y="50" width="160" height="55" as="geometry" />
        </mxCell>
        <mxCell id="UykqgiaP44-gQdHWJnm8-21" value="" style="edgeStyle=entityRelationEdgeStyle;fontSize=12;html=1;endArrow=ERzeroToMany;startArrow=ERzeroToOne;rounded=0;entryX=-0.013;entryY=0.898;entryDx=0;entryDy=0;entryPerimeter=0;exitX=1.008;exitY=0.334;exitDx=0;exitDy=0;exitPerimeter=0;" edge="1" parent="1" source="UykqgiaP44-gQdHWJnm8-19">
          <mxGeometry width="100" height="100" relative="1" as="geometry">
            <mxPoint x="85.2000000000001" y="449.99999999999994" as="sourcePoint" />
            <mxPoint x="69.99999999999983" y="310.69999999999993" as="targetPoint" />
            <Array as="points">
              <mxPoint x="12.079999999999998" y="441.92" />
              <mxPoint x="42.08000000000001" y="411.92" />
            </Array>
          </mxGeometry>
        </mxCell>
        <mxCell id="UykqgiaP44-gQdHWJnm8-22" value="&lt;font style=&quot;font-size: 26px;&quot; face=&quot;Tahoma&quot;&gt;SICK_NOTES&lt;/font&gt;" style="swimlane;childLayout=stackLayout;horizontal=1;startSize=50;horizontalStack=0;rounded=1;fontSize=14;fontStyle=0;strokeWidth=2;resizeParent=0;resizeLast=1;shadow=0;dashed=0;align=center;arcSize=4;whiteSpace=wrap;html=1;" vertex="1" parent="1">
          <mxGeometry x="320" y="350" width="160" height="90" as="geometry" />
        </mxCell>
        <mxCell id="UykqgiaP44-gQdHWJnm8-23" value="&lt;div&gt;+ User (user);&lt;/div&gt;&lt;div&gt;+ sick_note (string);&lt;br&gt;&lt;/div&gt;" style="align=left;strokeColor=none;fillColor=none;spacingLeft=4;fontSize=12;verticalAlign=top;resizable=0;rotatable=0;part=1;html=1;" vertex="1" parent="UykqgiaP44-gQdHWJnm8-22">
          <mxGeometry y="50" width="160" height="40" as="geometry" />
        </mxCell>
        <mxCell id="UykqgiaP44-gQdHWJnm8-26" value="" style="edgeStyle=entityRelationEdgeStyle;fontSize=12;html=1;endArrow=ERzeroToMany;startArrow=ERzeroToOne;rounded=0;entryX=0.995;entryY=0.887;entryDx=0;entryDy=0;entryPerimeter=0;exitX=-0.015;exitY=0.304;exitDx=0;exitDy=0;exitPerimeter=0;" edge="1" parent="1" source="UykqgiaP44-gQdHWJnm8-22" target="UykqgiaP44-gQdHWJnm8-2">
          <mxGeometry width="100" height="100" relative="1" as="geometry">
            <mxPoint x="380" y="410" as="sourcePoint" />
            <mxPoint x="480" y="310" as="targetPoint" />
          </mxGeometry>
        </mxCell>
        <mxCell id="UykqgiaP44-gQdHWJnm8-28" value="&lt;font face=&quot;Tahoma&quot; style=&quot;font-size: 26px;&quot;&gt;PERMISSIONS&lt;/font&gt;" style="swimlane;childLayout=stackLayout;horizontal=1;startSize=50;horizontalStack=0;rounded=1;fontSize=14;fontStyle=0;strokeWidth=2;resizeParent=0;resizeLast=1;shadow=0;dashed=0;align=center;arcSize=4;whiteSpace=wrap;html=1;" vertex="1" parent="1">
          <mxGeometry x="310" y="480" width="170" height="80" as="geometry" />
        </mxCell>
        <mxCell id="UykqgiaP44-gQdHWJnm8-29" value="+ Name (string);" style="align=left;strokeColor=none;fillColor=none;spacingLeft=4;fontSize=12;verticalAlign=top;resizable=0;rotatable=0;part=1;html=1;" vertex="1" parent="UykqgiaP44-gQdHWJnm8-28">
          <mxGeometry y="50" width="170" height="30" as="geometry" />
        </mxCell>
        <mxCell id="UykqgiaP44-gQdHWJnm8-31" value="" style="edgeStyle=entityRelationEdgeStyle;fontSize=12;html=1;endArrow=ERzeroToMany;startArrow=ERmandOne;rounded=0;entryX=-0.017;entryY=0.348;entryDx=0;entryDy=0;entryPerimeter=0;" edge="1" parent="1" source="UykqgiaP44-gQdHWJnm8-29" target="UykqgiaP44-gQdHWJnm8-9">
          <mxGeometry width="100" height="100" relative="1" as="geometry">
            <mxPoint x="340" y="480" as="sourcePoint" />
            <mxPoint x="440" y="380" as="targetPoint" />
          </mxGeometry>
        </mxCell>
      </root>
    </mxGraphModel>
  </diagram>
</mxfile>
